<?xml version="1.0" standalone="no"?><!DOCTYPE svg PUBLIC "-//W3C//DTD SVG 1.1//EN" "http://www.w3.org/Graphics/SVG/1.1/DTD/svg11.dtd"><svg t="1730023451253" class="icon" viewBox="0 0 1024 1024" version="1.1" xmlns="http://www.w3.org/2000/svg" p-id="1381" xmlns:xlink="http://www.w3.org/1999/xlink" width="48" height="48"><path d="M971.18744 908.648421h-15.357145v64.216425c0 28.098436-23.661683 50.964163-52.727065 50.964164-29.065382 0-52.671068-22.864727-52.671069-50.963164v-64.216425H120.72678c-29.065382 0-52.670068-22.923724-52.670068-51.078157V217.279905H52.698567C23.690181 217.279905 0.028498 194.356181 0.028498 166.201749c0-28.098436 23.661683-50.964163 52.670069-50.964164h15.358145v-64.216425c0-28.155433 23.604686-51.02116 52.670068-51.02116s52.727065 22.865727 52.727065 51.02116v64.216425h729.649385c29.065382 0 52.727065 22.865727 52.727065 50.964164v640.404352h15.357145c29.065382 0 52.670068 22.866727 52.670068 50.965163 0 28.154433-23.604686 51.077157-52.670068 51.077157zM850.432161 217.279905H173.453845v589.327196h676.978316v-589.327196zM334.479881 532.732346a33.558132 33.558132 0 0 1 41.86267-11.034386l171.093476 80.541517h0.283985l99.88044-147.715778a32.535189 32.535189 0 0 1 30.942278-14.106214 31.852227 31.852227 0 0 1 27.131489 20.191876l88.334083 228.541278a29.861338 29.861338 0 0 1-3.981778 28.895392 32.762176 32.762176 0 0 1-26.676515 13.309259H260.366007a32.592186 32.592186 0 0 1-28.610407-16.097104 29.975331 29.975331 0 0 1 1.079939-32.250205l101.644342-150.275635z m28.780398-75.137818c-41.806673 0-75.81978-32.933167-75.819779-73.430912s34.013107-73.487909 75.819779-73.487909c41.749676 0 75.763783 32.990164 75.763783 73.487909 0 40.497746-34.014107 73.430913-75.763783 73.430912z" p-id="1382"></path></svg>